<svg xmlns="http://www.w3.org/2000/svg" width="100%" height="140" viewBox="0 0 1026 140">
  <style>
    .box { fill:#0b1b2d; stroke:#58a6ff; stroke-width:3; rx:14; }
    .text { fill:#fff; font-family:Arial, sans-serif; font-size:16px; }
    .subtitle { fill:#cdd9e5; font-size:14px; }
    .arrow { fill:none; stroke:#58a6ff; stroke-width:4; marker-end:url(#arrowhead); }
  </style>
  <defs>
    <marker id="arrowhead" markerWidth="10" markerHeight="7" refX="10" refY="3.5" orient="auto">
      <polygon points="0 0, 10 3.5, 0 7" fill="#58a6ff" />
    </marker>
  </defs>
  <rect class="box" x="20" y="40" width="180" height="80" />
  <text class="text" x="110" y="70" text-anchor="middle">Data</text>
  <text class="subtitle" x="110" y="92" text-anchor="middle">CSV / Synthetic</text>
  <rect class="box" x="220" y="40" width="180" height="80" />
  <text class="text" x="310" y="70" text-anchor="middle">Preprocess</text>
  <text class="subtitle" x="310" y="92" text-anchor="middle">Scaling / reshape</text>
  <rect class="box" x="420" y="40" width="180" height="80" />
  <text class="text" x="510" y="70" text-anchor="middle">Model</text>
  <text class="subtitle" x="510" y="92" text-anchor="middle">MLP / CNN / LSTM</text>
  <rect class="box" x="620" y="40" width="180" height="80" />
  <text class="text" x="710" y="70" text-anchor="middle">Quantize</text>
  <text class="subtitle" x="710" y="92" text-anchor="middle">TFLite int8</text>
  <rect class="box" x="820" y="40" width="180" height="80" />
  <text class="text" x="910" y="70" text-anchor="middle">Deploy</text>
  <text class="subtitle" x="910" y="92" text-anchor="middle">STM32 / TFLM</text>
  <path class="arrow" d="M200 80 L220 80" />
  <path class="arrow" d="M400 80 L420 80" />
  <path class="arrow" d="M600 80 L620 80" />
  <path class="arrow" d="M800 80 L820 80" />
</svg>
